<svg xmlns="http://www.w3.org/2000/svg" xmlns:xlink="http://www.w3.org/1999/xlink" id="svg" width="400" height="400" version="1.1" viewBox="0 0 400 400"><g id="svgg"><path id="path0" fill="#fcfcfc" fill-rule="evenodd" stroke="none" d="M0.063 62.598 C 0.097 97.026,0.183 124.580,0.254 123.828 C 0.982 116.119,1.399 113.013,2.405 107.829 C 13.741 49.397,62.303 5.606,121.680 0.272 C 122.539 0.194,95.513 0.102,61.621 0.066 L 0.000 0.000 0.063 62.598 M272.915 0.606 C 365.622 10.726,419.296 110.060,377.279 193.750 C 371.141 205.976,369.502 206.606,363.090 199.201 C 334.138 165.766,290.173 151.572,247.512 161.886 C 199.500 173.493,162.763 216.306,159.167 264.844 C 159.031 266.670,158.759 268.694,158.562 269.342 C 157.883 271.572,96.281 332.651,94.145 333.213 C 90.522 334.166,86.642 332.735,84.585 329.688 L 83.398 327.930 83.280 292.383 L 83.161 256.836 78.397 254.721 C 35.423 235.641,5.811 194.581,0.618 146.875 C 0.161 142.670,0.081 159.907,0.043 270.996 L 0.000 400.000 190.527 399.957 C 295.317 399.934,380.327 399.770,379.439 399.594 C 374.876 398.691,374.168 398.081,352.151 376.049 C 340.763 364.654,330.604 354.571,329.577 353.642 C 327.029 351.339,326.218 351.399,321.325 354.252 C 259.880 390.083,182.826 345.701,183.056 274.609 C 183.259 211.518,244.889 167.615,304.752 187.916 C 359.310 206.418,383.226 270.458,354.435 320.954 C 350.622 327.640,348.355 324.294,374.374 350.376 C 398.261 374.322,398.676 374.801,399.594 379.439 C 399.770 380.327,399.934 295.317,399.957 190.527 L 400.000 0.000 334.082 0.043 C 277.002 0.081,268.801 0.156,272.915 0.606 M268.395 217.205 C 211.764 224.326,197.762 299.560,248.065 326.432 C 286.287 346.850,332.992 318.551,332.951 275.000 C 332.919 240.363,302.291 212.943,268.395 217.205 M399.475 387.012 C 398.638 392.236,393.202 397.848,387.500 399.374 C 385.393 399.937,385.493 399.949,392.676 399.974 L 400.000 400.000 400.000 392.773 C 400.000 385.461,399.899 384.358,399.475 387.012"/><path id="path1" fill="#040404" fill-rule="evenodd" stroke="none" d="M121.875 0.263 C 74.947 5.006,36.037 31.083,14.832 72.001 C -20.207 139.615,9.138 223.970,78.397 254.721 L 83.161 256.836 83.280 292.383 L 83.398 327.930 84.585 329.688 C 86.642 332.735,90.522 334.166,94.145 333.213 C 96.281 332.651,157.883 271.572,158.562 269.342 C 158.759 268.694,159.031 266.670,159.167 264.844 C 160.798 242.834,170.047 219.982,184.676 201.822 C 228.130 147.878,309.040 143.890,357.693 193.294 C 359.886 195.521,361.676 197.507,365.190 201.612 C 367.600 204.427,370.537 204.594,372.649 202.036 C 376.430 197.458,384.044 179.729,387.079 168.439 C 394.919 139.271,392.985 109.578,381.399 81.250 C 380.284 78.522,373.851 65.907,373.219 65.209 C 372.910 64.867,372.656 64.468,372.656 64.322 C 372.656 63.466,364.540 52.046,360.339 46.992 C 339.127 21.469,306.398 4.190,272.440 0.586 C 267.433 0.055,126.918 -0.246,121.875 0.263 M267.383 183.237 C 207.916 188.004,168.394 248.347,187.840 304.688 C 206.794 359.604,271.162 383.505,321.325 354.252 C 326.213 351.402,327.027 351.341,329.577 353.633 C 330.604 354.557,340.799 364.670,352.231 376.106 C 372.431 396.313,373.103 396.940,376.059 398.346 C 390.038 404.994,404.993 390.036,398.345 376.057 C 396.937 373.096,396.288 372.401,374.777 350.822 C 362.611 338.618,352.502 328.387,352.311 328.086 C 351.529 326.851,352.029 325.174,354.435 320.954 C 373.548 287.431,370.306 246.857,346.100 216.644 C 327.654 193.621,297.498 180.823,267.383 183.237 M285.978 217.939 C 326.244 225.944,345.961 271.732,323.970 306.168 C 299.759 344.083,243.467 341.292,223.201 301.172 C 201.564 258.336,239.066 208.613,285.978 217.939"/><path id="path2" fill="#f4f4f4" fill-rule="evenodd" stroke="none"/><path id="path3" fill="#408480" fill-rule="evenodd" stroke="none"/><path id="path4" fill="#400484" fill-rule="evenodd" stroke="none"/></g></svg>