<svg id="svg" version="1.1" xmlns="http://www.w3.org/2000/svg" xmlns:xlink="http://www.w3.org/1999/xlink" width="400" height="400" viewBox="0, 0, 400,400"><g id="svgg"><path id="path0" d="M121.680 0.272 C 62.986 5.544,14.721 48.471,2.749 106.048 C -9.957 167.155,21.815 229.599,78.397 254.721 L 83.161 256.836 83.280 292.383 L 83.398 327.930 84.585 329.688 C 86.642 332.735,90.522 334.166,94.145 333.213 C 96.281 332.651,157.883 271.572,158.562 269.342 C 158.759 268.694,159.031 266.670,159.167 264.844 C 160.512 246.689,167.439 226.762,177.839 211.133 C 220.948 146.344,312.228 140.464,363.090 199.201 C 369.502 206.606,371.141 205.976,377.279 193.750 C 383.330 181.696,387.160 170.525,389.458 158.222 C 395.821 124.159,388.991 89.228,370.362 60.547 C 367.113 55.544,363.975 51.385,359.342 45.936 C 337.924 20.748,306.142 4.163,272.440 0.586 C 267.417 0.053,127.365 -0.239,121.680 0.272 M267.383 183.237 C 207.913 188.004,168.393 248.344,187.840 304.688 C 206.794 359.607,271.159 383.506,321.325 354.252 C 326.213 351.402,327.027 351.341,329.577 353.633 C 330.604 354.557,340.799 364.670,352.231 376.106 C 372.431 396.313,373.103 396.940,376.059 398.346 C 390.086 405.017,404.992 390.034,398.309 375.982 C 396.854 372.921,396.406 372.441,374.728 350.725 C 362.574 338.549,352.480 328.351,352.297 328.063 C 351.530 326.852,352.041 325.152,354.435 320.954 C 391.229 256.420,341.228 177.317,267.383 183.237 M285.978 217.939 C 335.238 227.732,349.997 291.688,309.853 321.400 C 272.420 349.106,219.983 324.673,216.977 278.125 C 214.583 241.044,249.407 210.669,285.978 217.939 " stroke="none" fill="#fcbc7c" fill-rule="evenodd"></path><path id="path1" d="" stroke="none" fill="#100bc7c" fill-rule="evenodd"></path><path id="path2" d="" stroke="none" fill="#100bc7c" fill-rule="evenodd"></path><path id="path3" d="" stroke="none" fill="#100bc7c" fill-rule="evenodd"></path><path id="path4" d="" stroke="none" fill="#100bc7c" fill-rule="evenodd"></path></g></svg>
